<?xml version="1.0" encoding="utf-8"?>
<!-- Generator: Adobe Illustrator 16.0.0, SVG Export Plug-In . SVG Version: 6.00 Build 0)  -->
<!DOCTYPE svg PUBLIC "-//W3C//DTD SVG 1.1//EN" "http://www.w3.org/Graphics/SVG/1.1/DTD/svg11.dtd">
<svg version="1.1" xmlns="http://www.w3.org/2000/svg" xmlns:xlink="http://www.w3.org/1999/xlink" x="0px" y="0px"
	 width="321.84px" height="105.12px" viewBox="0 0 321.84 105.12" enable-background="new 0 0 321.84 105.12" xml:space="preserve">
<g id="Слой_11_xA0_Изображение_1_">
	<g>
		<path fill="#FFFFFF" d="M321.954,105.354c-107.282,0-214.558,0-321.827,0c0-35.082,0-70.158,0-105.227
			c107.282,0,214.558,0,321.827,0C321.954,35.209,321.954,70.284,321.954,105.354z"/>
	</g>
</g>
<g id="Слой_12_xA0_Изображение_1_">
	<g>
		<path fill="#FFFFFF" d="M7.8,90.119c0-28.279,0-56.56,0-84.839c102.12,0,204.24,0,306.36,0c0,28.28,0,56.56,0,84.839
			C212.04,90.119,109.919,90.119,7.8,90.119z M70.927,85.022c3.587,0.024,7.111-0.482,10.545-1.468
			c2.697-0.773,5.306-1.796,7.8-3.123c3.056-1.626,5.85-3.601,8.373-5.953c2.903-2.707,5.322-5.805,7.264-9.278
			c2.308-4.13,3.783-8.529,4.414-13.214c0.392-2.903,0.489-5.818,0.076-8.718c-0.279-1.959-0.618-3.927-1.148-5.83
			c-0.813-2.917-2.004-5.69-3.555-8.316c-2.028-3.433-4.536-6.447-7.547-9.039c-3.492-3.006-7.423-5.267-11.767-6.826
			c-3.451-1.239-7.003-1.976-10.652-2.182c-4.104-0.232-8.156,0.143-12.145,1.211c-2.84,0.761-5.587,1.755-8.195,3.101
			c-3.643,1.879-6.925,4.272-9.816,7.184c-0.55,0.554-1.146,0.693-1.83,0.39c-0.597-0.265-1.188-0.561-1.741-0.906
			c-3.293-2.06-6.571-4.143-9.86-6.208c-2.965-1.862-5.938-3.713-8.908-5.568c-1.909-1.191-3.811-2.394-5.731-3.566
			c-0.802-0.489-1.111-0.439-1.661,0.324c-0.732,1.017-1.414,2.07-2.081,3.131c-1.518,2.411-3.02,4.832-4.513,7.258
			c-0.492,0.799-0.368,1.351,0.375,1.917c0.206,0.157,0.421,0.305,0.639,0.445c1.49,0.961,2.978,1.925,4.474,2.877
			c3.125,1.988,6.25,3.978,9.385,5.952c3.758,2.365,7.53,4.709,11.289,7.074c0.972,0.611,1.197,1.22,0.855,2.333
			c-1.043,3.391-1.621,6.861-1.634,10.403c-0.015,4.231,0.645,8.354,2.093,12.357c1.047,2.892,2.374,5.633,4.122,8.145
			c4.669,6.711,10.885,11.387,18.639,14.037C62.527,84.348,66.674,84.987,70.927,85.022z M260.759,46.866c0.002,0,0.004,0,0.006,0
			c0-4.14,0-8.279-0.001-12.419c0-1.959,0.009-3.919-0.009-5.878c-0.007-0.831-0.691-1.44-1.426-1.294
			c-0.389,0.077-0.772,0.196-1.146,0.328c-2.034,0.715-4.077,1.409-6.094,2.171c-1.994,0.754-3.96,1.581-5.938,2.376
			c-0.715,0.287-1.001,0.806-1,1.586c0.015,9.559,0.004,19.118,0.017,28.678c0.001,1.325-0.183,2.598-0.604,3.86
			c-1.457,4.372-5.738,5.933-8.905,4.769c-1.849-0.68-3.341-1.772-4.206-3.577c-0.73-1.524-1.048-3.16-1.049-4.844
			c-0.009-11.399-0.004-22.798-0.005-34.197c0-0.936-0.462-1.32-1.368-1.116c-0.576,0.13-1.162,0.254-1.711,0.465
			c-3.767,1.446-7.527,2.909-11.284,4.381c-1.079,0.422-1.235,0.688-1.235,1.828c-0.001,9.959-0.008,19.918,0.01,29.877
			c0.002,1.073,0.071,2.157,0.229,3.218c0.905,6.061,3.838,10.919,8.923,14.345c3.396,2.288,7.241,3.436,11.334,3.636
			c1.389,0.068,2.792-0.005,4.181-0.113c2.14-0.166,4.245-0.554,6.246-1.371c1.601-0.652,3.198-1.312,4.777-2.016
			c0.696-0.31,1.233-0.171,1.807,0.274c1.257,0.979,2.536,1.929,3.825,2.866c0.983,0.715,1.451,0.655,2.285-0.211
			c0.111-0.115,0.217-0.235,0.324-0.354c1.213-1.327,2.44-2.641,3.634-3.984c1.459-1.644,2.908-3.295,4.321-4.977
			c0.646-0.77,0.522-1.223-0.248-1.863c-1.243-1.034-2.488-2.067-3.675-3.164c-0.932-0.86-1.65-1.891-1.81-3.202
			c-0.093-0.77-0.194-1.546-0.196-2.318C260.751,58.705,260.759,52.786,260.759,46.866z M157.085,51.221c-0.003,0-0.006,0-0.009,0
			c0-2.48,0.012-4.96-0.004-7.439c-0.013-2.005-0.254-3.983-0.853-5.904c-1.397-4.483-4.471-7.438-8.659-9.292
			c-2.432-1.077-5.053-1.522-7.692-1.678c-1.945-0.114-3.925-0.185-5.852,0.043c-4.128,0.488-8.024,1.833-11.764,3.651
			c-1.67,0.812-2.791,2.053-3.493,3.761c-0.978,2.376-1.654,4.829-1.983,7.37c-0.138,1.061-0.222,2.153-0.123,3.212
			c0.133,1.418,1.109,1.891,2.404,1.317c0.091-0.04,0.182-0.081,0.271-0.125c2.763-1.378,5.517-2.776,8.292-4.132
			c2.888-1.412,5.804-2.75,9.092-2.937c3.628-0.207,5.897,1.98,5.953,5.294c0.037,2.209-0.739,3.996-3.313,4.623
			c-0.271,0.066-0.538,0.153-0.808,0.224c-2.603,0.68-5.223,1.302-7.806,2.049c-3.984,1.153-7.735,2.802-10.917,5.549
			c-3.865,3.338-5.802,7.64-6.03,12.667c-0.158,3.488,0.601,6.831,2.503,9.835c1.229,1.94,2.837,3.427,5.035,4.244
			c1.543,0.574,3.12,0.939,4.74,1.216c4.439,0.756,8.724,0.167,12.887-1.41c2.285-0.865,4.512-1.883,6.768-2.826
			c0.945-0.396,1.777-0.428,2.595,0.412c1.213,1.243,2.542,2.372,3.819,3.554c0.806,0.744,1.056,0.746,1.827-0.04
			c2.156-2.196,4.323-4.383,6.453-6.604c0.938-0.978,1.828-2.008,2.687-3.058c0.53-0.648,0.476-0.957-0.145-1.544
			c-0.462-0.439-0.947-0.86-1.459-1.241c-1.688-1.257-2.994-2.812-3.332-4.926c-0.443-2.774-0.852-5.565-1.048-8.365
			C156.948,56.229,157.085,53.721,157.085,51.221z M273.479,72.585c0.002,0,0.004,0,0.006,0c0,1.579,0.024,3.16-0.01,4.739
			c-0.018,0.872,0.315,1.523,1.053,1.938c1.282,0.722,2.542,1.507,3.89,2.082c4.178,1.785,8.532,2.97,13.048,3.521
			c3.072,0.376,6.133,0.324,9.17-0.345c2.37-0.521,4.593-1.373,6.492-2.922c2.794-2.277,4.349-5.258,4.915-8.787
			c0.418-2.609,0.53-5.228-0.152-7.797c-1.129-4.246-3.801-7.292-7.552-9.492c-4.565-2.68-9.299-5.032-14.056-7.342
			c-1.62-0.787-3.099-1.706-3.898-3.456c-1.211-2.652,0.346-5.817,3.184-6.297c1.744-0.295,3.513-0.249,5.109,0.528
			c2.345,1.141,4.62,2.426,6.897,3.699c1.516,0.847,2.945,1.852,4.481,2.654c1.294,0.676,2.303,0.381,2.675-1.084
			c0.093-0.363,0.134-0.749,0.136-1.125c0.016-2.359-0.045-4.721,0.034-7.079c0.065-1.964-0.801-3.373-2.312-4.473
			c-2.076-1.512-4.244-2.857-6.746-3.571c-2.186-0.625-4.383-1.224-6.664-1.326c-2.315-0.104-4.626-0.028-6.929,0.33
			c-2.67,0.415-5.181,1.184-7.436,2.74c-3.53,2.438-5.742,5.703-6.318,9.974c-0.284,2.116-0.184,4.246,0.211,6.358
			c0.385,2.063,1.476,3.78,2.595,5.488c1.854,2.831,4.428,4.877,7.31,6.55c2.538,1.474,5.296,2.462,8.04,3.484
			c1.842,0.686,3.654,1.481,5.4,2.383c1.131,0.585,2.13,1.44,2.5,2.778c0.887,3.212-1.804,6.332-5.118,5.86
			c-1.294-0.185-2.594-0.488-3.826-0.92c-3.982-1.393-7.818-3.13-11.544-5.112c-0.527-0.28-1.05-0.582-1.605-0.796
			c-1.759-0.676-2.974,0.181-2.979,2.075C273.476,69.425,273.479,71.005,273.479,72.585z M170.401,58.506c0,8.219,0,16.438,0,24.656
			c0,1.267,0.52,1.798,1.771,1.798c3.939,0.002,7.879,0.001,11.818,0c1.495,0,2.009-0.514,2.009-2.028
			c0.003-12.679,0.006-25.356-0.003-38.035c-0.001-0.647,0.232-1.097,0.778-1.437c1.216-0.757,2.506-1.329,3.91-1.623
			c2.065-0.433,4.142-0.807,6.187,0.06c0.842,0.356,1.657,0.787,2.453,1.239c0.915,0.52,1.803,0.683,2.663-0.049
			c1.186-1.009,2.378-2.013,3.513-3.077c1.575-1.476,3.112-2.993,4.641-4.518c0.749-0.748,0.819-1.384,0.254-2.126
			c-1.547-2.03-3.392-3.723-5.724-4.813c-2.526-1.181-5.147-1.724-7.971-1.353c-2.528,0.333-4.9,1.072-7.163,2.206
			c-0.873,0.438-1.708,0.951-2.562,1.427c-0.681,0.379-0.97,0.222-0.976-0.536c-0.005-0.64,0.004-1.28,0-1.919
			c-0.005-0.887-0.479-1.271-1.355-1.073c-0.577,0.13-1.162,0.253-1.712,0.464c-3.805,1.456-7.604,2.929-11.398,4.41
			c-0.931,0.363-1.133,0.71-1.133,1.73C170.4,42.107,170.4,50.307,170.401,58.506z M27.24,61.465c0-7.037-0.023-14.075,0.023-21.112
			c0.008-1.148-0.408-1.895-1.328-2.477c-3.154-1.995-6.283-4.029-9.46-5.985c-0.835-0.514-1.786-0.89-2.731-1.162
			c-1.159-0.334-2.091,0.477-2.102,1.693c-0.008,0.939,0.006,1.879,0.006,2.819c-0.002,15.974-0.004,31.947-0.007,47.921
			c0,1.267,0.52,1.798,1.77,1.798c3.938,0.002,7.877,0.001,11.815,0c1.498,0,2.012-0.512,2.012-2.024
			C27.241,75.778,27.24,68.621,27.24,61.465z"/>
		<path fill-rule="evenodd" clip-rule="evenodd" d="M70.927,85.022c-4.253-0.035-8.399-0.675-12.442-2.057
			c-7.753-2.65-13.969-7.326-18.639-14.037c-1.749-2.512-3.075-5.253-4.122-8.145c-1.449-4.003-2.108-8.126-2.093-12.357
			c0.013-3.542,0.591-7.012,1.634-10.403c0.342-1.113,0.117-1.722-0.855-2.333c-3.759-2.364-7.531-4.708-11.289-7.074
			c-3.135-1.974-6.26-3.963-9.385-5.952c-1.496-0.952-2.984-1.916-4.474-2.877c-0.218-0.141-0.433-0.288-0.639-0.445
			c-0.742-0.566-0.867-1.118-0.375-1.917c1.494-2.426,2.996-4.847,4.513-7.258c0.667-1.061,1.349-2.114,2.081-3.131
			c0.55-0.764,0.858-0.813,1.661-0.324c1.92,1.172,3.823,2.375,5.731,3.566c2.97,1.854,5.942,3.706,8.908,5.568
			c3.289,2.065,6.567,4.148,9.86,6.208c0.553,0.346,1.144,0.641,1.741,0.906c0.684,0.303,1.28,0.164,1.83-0.39
			c2.891-2.912,6.173-5.305,9.816-7.184c2.608-1.346,5.355-2.339,8.195-3.101c3.988-1.068,8.041-1.443,12.145-1.211
			c3.649,0.207,7.201,0.943,10.652,2.182c4.344,1.56,8.274,3.82,11.767,6.826c3.011,2.592,5.52,5.605,7.547,9.039
			c1.551,2.626,2.742,5.399,3.555,8.316c0.531,1.903,0.87,3.871,1.148,5.83c0.413,2.9,0.315,5.814-0.076,8.718
			c-0.631,4.685-2.106,9.084-4.414,13.214c-1.941,3.474-4.36,6.571-7.264,9.278c-2.522,2.353-5.316,4.327-8.373,5.953
			c-2.495,1.327-5.104,2.35-7.8,3.123C78.038,84.54,74.514,85.047,70.927,85.022z M94,48.063c-0.04-4.428-0.877-7.673-2.594-10.688
			c-2.196-3.858-5.331-6.689-9.34-8.572c-4.468-2.099-9.141-2.639-13.972-1.772c-2.14,0.384-4.183,1.099-6.144,2.073
			c-2.876,1.427-5.363,3.333-7.436,5.773c-2.715,3.197-4.408,6.873-5.029,11.026c-0.451,3.012-0.244,5.999,0.716,8.879
			c0.504,1.513,1.215,2.979,1.999,4.373c1.713,3.051,4.206,5.379,7.199,7.142c2.919,1.719,6.086,2.699,9.48,2.985
			c4.563,0.384,8.868-0.486,12.917-2.576c2.546-1.313,4.779-3.058,6.678-5.227C92.083,57.36,93.946,52.585,94,48.063z"/>
		<path fill-rule="evenodd" clip-rule="evenodd" d="M260.759,46.866c0,5.919-0.008,11.839,0.009,17.759
			c0.002,0.772,0.104,1.549,0.196,2.318c0.159,1.312,0.878,2.342,1.81,3.202c1.187,1.097,2.432,2.13,3.675,3.164
			c0.771,0.641,0.895,1.094,0.248,1.863c-1.413,1.682-2.862,3.333-4.321,4.977c-1.193,1.344-2.421,2.657-3.634,3.984
			c-0.107,0.118-0.213,0.238-0.324,0.354c-0.834,0.866-1.302,0.926-2.285,0.211c-1.289-0.938-2.568-1.888-3.825-2.866
			c-0.573-0.445-1.11-0.584-1.807-0.274c-1.579,0.703-3.177,1.363-4.777,2.016c-2.001,0.817-4.106,1.205-6.246,1.371
			c-1.389,0.108-2.792,0.182-4.181,0.113c-4.093-0.2-7.938-1.348-11.334-3.636c-5.085-3.426-8.018-8.284-8.923-14.345
			c-0.158-1.061-0.228-2.145-0.229-3.218c-0.018-9.959-0.011-19.918-0.01-29.877c0-1.139,0.156-1.405,1.235-1.828
			c3.757-1.472,7.518-2.935,11.284-4.381c0.549-0.211,1.135-0.334,1.711-0.465c0.906-0.205,1.368,0.18,1.368,1.116
			c0.001,11.399-0.004,22.798,0.005,34.197c0.001,1.684,0.318,3.319,1.049,4.844c0.865,1.805,2.357,2.897,4.206,3.577
			c3.167,1.164,7.448-0.396,8.905-4.769c0.421-1.263,0.604-2.535,0.604-3.86c-0.013-9.56-0.002-19.119-0.017-28.678
			c-0.001-0.78,0.285-1.299,1-1.586c1.979-0.796,3.944-1.623,5.938-2.376c2.017-0.762,4.06-1.456,6.094-2.171
			c0.374-0.132,0.758-0.25,1.146-0.328c0.734-0.146,1.419,0.463,1.426,1.294c0.018,1.959,0.009,3.919,0.009,5.878
			c0.001,4.14,0.001,8.279,0.001,12.419C260.763,46.866,260.761,46.866,260.759,46.866z"/>
		<path fill-rule="evenodd" clip-rule="evenodd" d="M157.085,51.221c0,2.5-0.137,5.009,0.037,7.497
			c0.196,2.8,0.604,5.591,1.048,8.365c0.338,2.114,1.644,3.669,3.332,4.926c0.512,0.381,0.997,0.802,1.459,1.241
			c0.62,0.587,0.675,0.896,0.145,1.544c-0.858,1.05-1.748,2.08-2.687,3.058c-2.13,2.222-4.297,4.408-6.453,6.604
			c-0.771,0.786-1.021,0.784-1.827,0.04c-1.277-1.182-2.606-2.311-3.819-3.554c-0.818-0.84-1.65-0.809-2.595-0.412
			c-2.255,0.943-4.483,1.961-6.768,2.826c-4.163,1.577-8.448,2.166-12.887,1.41c-1.62-0.276-3.197-0.642-4.74-1.216
			c-2.198-0.817-3.806-2.304-5.035-4.244c-1.902-3.004-2.661-6.347-2.503-9.835c0.229-5.027,2.165-9.329,6.03-12.667
			c3.182-2.747,6.933-4.396,10.917-5.549c2.583-0.747,5.203-1.37,7.806-2.049c0.27-0.07,0.536-0.158,0.808-0.224
			c2.574-0.627,3.35-2.414,3.313-4.623c-0.056-3.314-2.324-5.501-5.953-5.294c-3.289,0.187-6.205,1.525-9.092,2.937
			c-2.774,1.356-5.528,2.754-8.292,4.132c-0.089,0.044-0.18,0.085-0.271,0.125c-1.295,0.574-2.271,0.102-2.404-1.317
			c-0.099-1.059-0.015-2.151,0.123-3.212c0.329-2.541,1.005-4.993,1.983-7.37c0.703-1.708,1.823-2.949,3.493-3.761
			c3.74-1.818,7.635-3.163,11.764-3.651c1.927-0.228,3.907-0.157,5.852-0.043c2.64,0.156,5.261,0.601,7.692,1.678
			c4.188,1.854,7.262,4.81,8.659,9.292c0.599,1.921,0.84,3.899,0.853,5.904c0.016,2.479,0.004,4.959,0.004,7.439
			C157.079,51.221,157.082,51.221,157.085,51.221z M130.092,72.441c0.198-0.003,0.394-0.021,0.584-0.02
			c0.122,0.001,0.201-0.015,0.312-0.043c0.187-0.048,0.396-0.062,0.589-0.099c0.222-0.04,0.443-0.085,0.664-0.132
			c0.438-0.095,0.872-0.202,1.303-0.322c0.854-0.238,1.693-0.526,2.513-0.861c1.645-0.672,3.209-1.529,4.681-2.522
			c0.269-0.181,0.535-0.367,0.797-0.557c0.453-0.327,0.727-0.778,0.651-1.391c-0.193-1.564-0.36-3.133-0.549-4.698
			c-0.156-1.289-0.621-1.677-1.876-1.352c-1.638,0.424-3.266,0.91-4.857,1.483c-2.041,0.734-4.063,1.529-6.05,2.398
			c-1.619,0.71-2.49,2.087-2.792,3.795c-0.237,1.334,0.02,2.565,1.14,3.459c0.534,0.427,1.183,0.675,1.848,0.798
			c0.108,0.02,0.224,0.033,0.333,0.043c0.216,0.019,0.424,0.021,0.646,0.021C130.05,72.442,130.071,72.442,130.092,72.441z"/>
		<path fill-rule="evenodd" clip-rule="evenodd" d="M273.479,72.585c0-1.58-0.003-3.16,0.001-4.74
			c0.005-1.895,1.22-2.751,2.979-2.075c0.556,0.214,1.078,0.516,1.605,0.796c3.726,1.982,7.562,3.72,11.544,5.112
			c1.232,0.432,2.532,0.735,3.826,0.92c3.314,0.472,6.005-2.648,5.118-5.86c-0.37-1.338-1.369-2.193-2.5-2.778
			c-1.746-0.901-3.559-1.697-5.4-2.383c-2.744-1.022-5.502-2.011-8.04-3.484c-2.882-1.673-5.455-3.72-7.31-6.55
			c-1.119-1.708-2.21-3.425-2.595-5.488c-0.395-2.112-0.495-4.242-0.211-6.358c0.576-4.271,2.788-7.536,6.318-9.974
			c2.255-1.556,4.766-2.326,7.436-2.74c2.303-0.358,4.613-0.435,6.929-0.33c2.281,0.103,4.479,0.701,6.664,1.326
			c2.502,0.714,4.67,2.059,6.746,3.571c1.511,1.1,2.377,2.509,2.312,4.473c-0.079,2.357-0.019,4.719-0.034,7.079
			c-0.002,0.375-0.043,0.761-0.136,1.125c-0.372,1.465-1.381,1.76-2.675,1.084c-1.536-0.803-2.966-1.807-4.481-2.654
			c-2.277-1.273-4.553-2.558-6.897-3.699c-1.597-0.776-3.365-0.823-5.109-0.528c-2.838,0.479-4.395,3.645-3.184,6.297
			c0.8,1.75,2.278,2.669,3.898,3.456c4.757,2.31,9.49,4.663,14.056,7.342c3.751,2.2,6.423,5.246,7.552,9.492
			c0.683,2.569,0.57,5.188,0.152,7.797c-0.566,3.529-2.121,6.51-4.915,8.787c-1.899,1.549-4.122,2.4-6.492,2.922
			c-3.037,0.669-6.098,0.721-9.17,0.345c-4.516-0.552-8.87-1.736-13.048-3.521c-1.348-0.575-2.607-1.36-3.89-2.082
			c-0.737-0.415-1.07-1.066-1.053-1.938c0.034-1.579,0.01-3.16,0.01-4.739C273.483,72.585,273.481,72.585,273.479,72.585z"/>
		<path fill-rule="evenodd" clip-rule="evenodd" d="M170.401,58.506c-0.001-8.199-0.001-16.398-0.001-24.597
			c0-1.02,0.202-1.367,1.133-1.73c3.795-1.481,7.594-2.954,11.398-4.41c0.55-0.21,1.135-0.334,1.712-0.464
			c0.877-0.198,1.351,0.186,1.355,1.073c0.004,0.64-0.005,1.28,0,1.919c0.006,0.757,0.295,0.915,0.976,0.536
			c0.854-0.476,1.689-0.989,2.562-1.427c2.263-1.134,4.635-1.873,7.163-2.206c2.823-0.372,5.444,0.171,7.971,1.353
			c2.332,1.09,4.177,2.784,5.724,4.813c0.565,0.742,0.495,1.378-0.254,2.126c-1.528,1.525-3.065,3.042-4.641,4.518
			c-1.135,1.064-2.327,2.068-3.513,3.077c-0.86,0.732-1.748,0.569-2.663,0.049c-0.796-0.452-1.611-0.882-2.453-1.239
			c-2.045-0.867-4.121-0.493-6.187-0.06c-1.404,0.294-2.694,0.866-3.91,1.623c-0.546,0.339-0.779,0.789-0.778,1.437
			c0.009,12.678,0.006,25.356,0.003,38.035c0,1.515-0.514,2.028-2.009,2.028c-3.939,0.001-7.879,0.002-11.818,0
			c-1.251,0-1.771-0.531-1.771-1.798C170.401,74.943,170.401,66.725,170.401,58.506z"/>
		<path fill-rule="evenodd" clip-rule="evenodd" d="M27.24,61.465c0,7.156,0.001,14.313-0.001,21.471
			c0,1.513-0.514,2.024-2.012,2.024c-3.938,0.001-7.877,0.002-11.815,0c-1.25,0-1.771-0.531-1.77-1.798
			c0.002-15.974,0.005-31.947,0.007-47.921c0-0.939-0.014-1.879-0.006-2.819c0.011-1.216,0.942-2.027,2.102-1.693
			c0.945,0.272,1.896,0.648,2.731,1.162c3.178,1.956,6.307,3.991,9.46,5.985c0.92,0.582,1.336,1.329,1.328,2.477
			C27.216,47.39,27.24,54.428,27.24,61.465z"/>
		<path fill-rule="evenodd" clip-rule="evenodd" fill="#FFFFFF" d="M94,48.063c-0.054,4.522-1.918,9.297-5.526,13.417
			c-1.899,2.169-4.132,3.913-6.678,5.227c-4.049,2.09-8.354,2.96-12.917,2.576c-3.394-0.286-6.561-1.267-9.48-2.985
			c-2.994-1.763-5.486-4.091-7.199-7.142c-0.783-1.395-1.494-2.86-1.999-4.373c-0.96-2.881-1.167-5.868-0.716-8.879
			c0.621-4.153,2.314-7.829,5.029-11.026c2.073-2.44,4.56-4.346,7.436-5.773c1.961-0.974,4.003-1.689,6.144-2.073
			c4.832-0.867,9.504-0.327,13.972,1.772c4.009,1.883,7.145,4.714,9.34,8.572C93.123,40.391,93.96,43.636,94,48.063z M72.227,30.29
			c-3.556,0.02-6.941,0.811-10.073,2.493C50.582,38.997,49.7,55.321,61.256,62.803c3.695,2.393,7.843,3.4,12.28,2.916
			c2.46-0.269,4.842-0.799,6.959-2.182c0.52-0.339,0.733-0.753,0.59-1.363c-0.427-1.832-1.353-3.391-2.539-4.831
			c-0.734-0.893-1.547-1.109-2.65-0.768c-1.158,0.358-2.352,0.695-3.552,0.811c-3.504,0.339-6.488-0.818-8.673-3.606
			c-2.68-3.418-2.64-7.759,0.003-11.283c2.089-2.785,4.994-3.969,8.389-3.989c1.228-0.008,2.455,0.259,3.685,0.374
			c0.632,0.06,1.291,0.152,1.785-0.417c1.157-1.332,1.996-2.856,2.521-4.523c0.438-1.391,0.021-2.096-1.356-2.588
			C76.609,30.605,74.446,30.274,72.227,30.29z"/>
		<path fill-rule="evenodd" clip-rule="evenodd" fill="#FFFFFF" d="M131.277,72.334c-0.2,0.034-0.397,0.05-0.602,0.066
			c-0.173,0.014-0.349-0.014-0.521-0.001c-0.155,0.013-0.295,0.035-0.458,0.021c-0.094-0.007-0.15-0.008-0.234-0.037
			c-0.177-0.062-0.379-0.029-0.573-0.062c-0.205-0.033-0.408-0.084-0.605-0.15c-0.391-0.134-0.758-0.333-1.082-0.591
			c-1.12-0.894-1.377-2.125-1.14-3.459c0.303-1.708,1.173-3.085,2.792-3.795c1.986-0.869,4.009-1.664,6.05-2.398
			c1.591-0.573,3.219-1.06,4.857-1.483c1.255-0.325,1.72,0.062,1.876,1.352c0.189,1.565,0.356,3.134,0.549,4.698
			c0.075,0.612-0.198,1.063-0.651,1.391C138.444,70.121,135.058,71.69,131.277,72.334z"/>
		<path fill-rule="evenodd" clip-rule="evenodd" d="M72.227,30.29c2.22-0.015,4.382,0.315,6.472,1.063
			c1.376,0.493,1.794,1.198,1.356,2.588c-0.525,1.667-1.364,3.192-2.521,4.523c-0.494,0.569-1.153,0.477-1.785,0.417
			c-1.23-0.115-2.458-0.382-3.685-0.374c-3.395,0.02-6.3,1.204-8.389,3.989c-2.643,3.523-2.683,7.864-0.003,11.283
			c2.185,2.788,5.169,3.945,8.673,3.606c1.201-0.115,2.394-0.452,3.552-0.811c1.103-0.342,1.916-0.125,2.65,0.768
			c1.186,1.44,2.111,2.999,2.539,4.831c0.143,0.61-0.071,1.024-0.59,1.363c-2.118,1.383-4.499,1.913-6.959,2.182
			c-4.437,0.484-8.585-0.523-12.28-2.916C49.7,55.321,50.582,38.997,62.153,32.782C65.285,31.101,68.67,30.309,72.227,30.29z"/>
	</g>
</g>
</svg>
