<?xml version="1.0" encoding="UTF-8" standalone="no"?>
<!DOCTYPE svg PUBLIC "-//W3C//DTD SVG 1.1//EN"
"http://www.w3.org/Graphics/SVG/1.1/DTD/svg11.dtd">


<!-- Page 1 -->
<svg x="0" y="0" width="674" height="158" viewBox="0 0 674 158" version="1.1" xmlns="http://www.w3.org/2000/svg" xmlns:xlink="http://www.w3.org/1999/xlink"
style="display: block;margin-left: auto;margin-right: auto;">
<defs>

<style type="text/css"><![CDATA[

.g0_1{
fill: #FFFFFF;
}
.g1_1{
fill: #231F20;
}

]]></style>

</defs>
<path d="M0,0
L0,158
L674,158
L674,0 Z " 
fill="#FFFFFF" stroke="none" />
<path d="M220.4,63.3v0V43.9c0,-2.9,0,-5.9,0,-8.9c-.1,-1.3,-1.1,-2.3,-2.3,-2c-.6,.1,-1.2,.3,-1.9,.6c-2.2,.8,-4.4,1.6,-6.6,2.5c-3.8,1.4,-7.6,2.8,-11.3,4.2c-1.4,.5,-1.8,1.4,-1.8,2.9c0,13.3,0,26.5,0,39.8c0,2.3,0,4.5,-.2,6.7c-.2,2.7,-1.3,5.1,-3.1,7.1c-4.9,5.4,-12.5,4.6,-16.7,-.9c-2,-2.6,-2.5,-5.7,-2.5,-8.8c0,-17.4,0,-34.7,0,-52.1c0,-1.8,-.6,-2.3,-2.3,-1.9c-.8,.2,-1.7,.4,-2.4,.7C163.5,36,157.8,38.2,152,40.4c-1.6,.7,-1.9,1.1,-1.9,2.9c0,15.5,0,31,.1,46.5c0,1.7,.2,3.3,.4,4.9c.9,4.7,2.6,9,5.3,12.9c2.5,3.7,5.7,6.6,9.5,8.9c5.1,3,10.6,4.6,16.5,4.8c2,.1,3.9,0,5.9,-.2c3.3,-.3,6.5,-.8,9.6,-2.1c2.4,-1,4.8,-2,7.2,-3.1c1.1,-.4,2,-.3,2.9,.5c1.9,1.4,3.8,2.9,5.7,4.3c1.6,1.1,2.3,1,3.7,-.4c.1,-.1,.2,-.3,.4,-.5c1.8,-2,3.7,-4,5.5,-6c2.2,-2.5,4.5,-5.1,6.7,-7.7c.9,-1.1,.7,-1.8,-.3,-2.7c-1.5,-1.2,-3,-2.5,-4.5,-3.7c-3,-2.4,-4.4,-5.5,-4.4,-9.4c.1,-9,.1,-18,.1,-27m-84,1.2c0,-5,-.5,-9.3,-1.6,-13.6C131.7,38.7,125.3,28.7,115.6,20.8C105.3,12.5,93.4,8.2,80.2,7.7C75,7.5,70,7.9,64.9,9.1C52,12.1,41.2,18.6,32.8,28.8C25.2,37.9,20.9,48.4,20.1,60.3c-.4,5.6,.1,11.2,1.5,16.7c3.1,12.6,9.9,22.9,20.2,30.8c12.8,9.9,27.4,13.7,43.5,12c6.8,-.7,13.3,-2.7,19.4,-5.8c1.1,-.5,2,-.4,2.9,.3c.4,.4,.9,.8,1.3,1.3c6.1,7.5,12.2,15.1,18.3,22.6c3.4,4.2,6.9,8.4,10.3,12.5c1,1.2,1.4,1.3,2.7,.4c1.3,-.9,2.6,-1.9,3.8,-3c3.8,-3,7.5,-6.1,11.2,-9.1c.9,-.8,1,-1.7,.2,-2.7c-.3,-.3,-.7,-.6,-1,-1c-4,-5,-8.1,-10,-12.2,-15c-5.4,-6.7,-10.8,-13.4,-16.2,-20c-1.3,-1.7,-1.3,-2.5,-.1,-4.2c6.9,-9.6,10.4,-20.3,10.5,-31.6Z" class="g0_1" />
<path fill-rule="evenodd" d="M78.2,31.5c-.9,0,-1.7,0,-2.6,0c-.8,.1,-1.7,.2,-2.5,.3c-9.2,1.4,-16.9,5.6,-22.7,13c-5.6,7.1,-7.7,15.3,-6.2,24.3c1.3,7.6,5.1,14,11,19c8.4,6.9,18,9.5,28.7,7.8C92.3,94.7,99.5,90.7,105,84.2c6,-7,8.5,-15.2,7.3,-24.3C111.4,53,108.5,47,103.6,42C96.6,35,88.1,31.6,78.2,31.5m58.2,33c-.1,11.3,-3.6,22,-10.5,31.6c-1.2,1.7,-1.2,2.5,.1,4.2c5.4,6.6,10.8,13.3,16.2,20c4.1,5,8.2,10,12.2,15c.3,.4,.7,.7,1,1c.8,1,.7,1.9,-.2,2.7c-3.7,3,-7.5,6.1,-11.2,9.1c-1.2,1.1,-2.5,2.1,-3.8,3c-1.3,.9,-1.7,.8,-2.7,-.4c-3.4,-4.1,-6.9,-8.3,-10.3,-12.5C121.1,130.7,115,123.1,108.9,115.6c-.4,-.5,-.9,-.9,-1.3,-1.3c-.9,-.7,-1.8,-.8,-2.9,-.3c-6.1,3.1,-12.6,5.1,-19.4,5.8c-16.1,1.7,-30.7,-2.1,-43.5,-12C31.5,99.9,24.7,89.6,21.6,77C20.2,71.5,19.7,65.9,20.1,60.3C20.9,48.4,25.2,37.9,32.8,28.8C41.2,18.6,52,12.1,64.9,9.1C70,7.9,75,7.5,80.2,7.7c13.2,.5,25.1,4.8,35.4,13.1c9.7,7.9,16.1,17.9,19.2,30.1c1.1,4.3,1.6,8.6,1.6,13.6Z" class="g1_1" />
<path fill-rule="evenodd" d="M220.4,63.3c0,9,0,18,-.1,27c0,3.9,1.4,7,4.4,9.4c1.5,1.2,3,2.5,4.5,3.7c1,.9,1.2,1.6,.3,2.7c-2.2,2.6,-4.5,5.2,-6.7,7.7c-1.8,2,-3.7,4,-5.5,6c-.2,.2,-.3,.4,-.4,.5c-1.4,1.4,-2.1,1.5,-3.7,.4c-1.9,-1.4,-3.8,-2.9,-5.7,-4.3c-.9,-.8,-1.8,-.9,-2.9,-.5c-2.4,1.1,-4.8,2.1,-7.2,3.1c-3.1,1.3,-6.3,1.8,-9.6,2.1c-2,.2,-3.9,.3,-5.9,.2c-5.9,-.2,-11.4,-1.8,-16.5,-4.8c-3.8,-2.3,-7,-5.2,-9.5,-8.9c-2.7,-3.9,-4.4,-8.2,-5.3,-12.9c-.2,-1.6,-.4,-3.2,-.4,-4.9c-.1,-15.5,-.1,-31,-.1,-46.5c0,-1.8,.3,-2.2,1.9,-2.9c5.8,-2.2,11.5,-4.4,17.3,-6.6c.7,-.3,1.6,-.5,2.4,-.7c1.7,-.4,2.3,.1,2.3,1.9c0,17.4,0,34.7,0,52.1c0,3.1,.5,6.2,2.5,8.8c4.2,5.5,11.8,6.3,16.7,.9c1.8,-2,2.9,-4.4,3.1,-7.1c.2,-2.2,.2,-4.4,.2,-6.7c0,-13.3,0,-26.5,0,-39.8c0,-1.5,.4,-2.4,1.8,-2.9c3.7,-1.4,7.5,-2.8,11.3,-4.2c2.2,-.9,4.4,-1.7,6.6,-2.5c.7,-.3,1.3,-.5,1.9,-.6c1.2,-.3,2.2,.7,2.3,2c0,3,0,6,0,8.9V63.3Z" class="g1_1" />
<path fill-rule="evenodd" d="M628.5,85.6c0,0,0,-.3,0,-.6c0,-.1,0,-.2,0,-.4c0,-.1,0,-.2,0,-.3c0,-.3,0,-.4,0,-.8c0,-.2,0,-.4,0,-.6c0,-.4,0,-.6,-.1,-1.2c0,-.8,0,-1.9,0,-1.9c0,0,0,1,0,1c0,0,0,-1,0,-1.8c0,-.2,0,-.5,0,-.5c0,-.3,0,-.4,0,-.5c.1,0,.1,-.2,.3,-.4c.2,-.2,.4,-.3,.6,-.3c.2,-.1,.5,0,.8,0c.2,.1,.3,.1,.5,.2c.3,.1,.4,.1,.7,.2c.8,.3,1,.4,1.6,.7q.1,0,.2,.1c0,0,.8,.3,1.7,.8c.2,.1,.4,.1,.4,.1c.1,.1,.3,.2,.3,.2c.4,.2,1.2,.6,1.2,.6c.8,.4,3.4,1.7,5,2.5c2.1,1,3.1,1.5,3.8,1.9c0,0,1.6,1,2.1,1.2c.1,.1,.3,.2,.6,.5c.3,.1,.6,.4,.7,.6c.4,.4,.3,.9,.3,1.4c0,1,.1,2.1,.1,3.2c0,.1,0,.7,0,1.9c0,1.5,0,2,0,2.7c0,.2,0,.4,0,.9c0,.5,0,.7,-.1,1.2c0,.2,0,.5,0,.7c0,1.4,0,1.9,0,4.2c0,2,0,3,0,4.3c.1,4.3,.4,6,-.7,7.6c-.6,1,-1.4,1.6,-2.2,2.1C636,122.9,623,123.8,623,123.8c-5.1,.4,-12.1,.8,-21.1,-1.4c-2.5,-.6,-8.5,-2.2,-15.4,-5.9c-2.7,-1.5,-9.5,-5.1,-14.8,-11C562.5,95.2,560,78.3,559.7,76.2c-2.5,-23.6,9.4,-45.5,22.5,-55.5c3.1,-2.4,9,-6.2,16.2,-8.7c7.4,-2.6,13.1,-2.6,13.3,-2.6c4.5,0,12.4,0,20.6,2.9c0,0,3,1.1,7.2,3.2c.1,.1,.8,.5,2.3,1.4c.9,.6,1.3,.9,1.7,1.5c.4,.5,.5,1.1,.6,1.4c.7,3.6,1,5.4,1.8,9.7c.2,.8,.4,1.9,.6,3.8c.1,.5,.3,1.7,.5,2.9c.1,1,0,.5,.1,2.3c.1,.8,.2,1.4,-.2,1.7c-.2,.2,-.6,.2,-.7,.2c-1.6,0,-8.6,-3.1,-9.5,-3.5c-1.8,-.7,-4.3,-1.6,-7.3,-2.3c-.3,-.1,-4.7,-1.1,-8.6,-1.3c-4.3,-.2,-11.9,.4,-19.2,4.6C588.8,45.3,585.4,58.8,585,60.7c-2.6,10.8,.2,22,5.4,28.5c3.5,4.5,7.7,7.1,7.7,7.1c2.8,1.9,5.6,2.9,7.1,3.5c1.9,.7,3.4,1.2,4.1,1.4c.9,.2,2.2,.6,3.9,.8c2.5,.4,4.3,.3,6.3,.3c1,-.1,2.4,-.2,4,-.5c.5,-.1,1.2,-.2,2,-.5c.4,-.1,.8,-.3,1.6,-.7c.1,-.1,.3,-.1,.5,-.3c.1,-.1,.2,-.1,.2,-.2c.1,-.1,.3,-.2,.4,-.4c.1,-.1,.3,-.3,.4,-.6c.2,-.4,.2,-.8,.2,-1c0,-1.1,.1,-2.2,0,-3.3c0,-.9,-.1,-2,-.1,-4.1c0,-.4,0,-.3,-.1,-1c0,-1.5,-.1,-3.3,-.1,-4.1Z" class="g1_1" />
<path fill-rule="evenodd" d="M300.8,65.1c-.1,1.5,-.5,4.5,-.6,7.5c-.2,3.8,-.2,7.7,-.3,11.5c0,2.9,.2,5.8,1,8.5c.7,2.4,1.5,4.8,3.4,6.5c1.4,1.3,2.9,2.4,4.3,3.6c.3,.2,.5,.4,.8,.6c.4,.4,.6,.8,.6,1.1c.1,.5,-.2,.9,-.4,1.1c-3.3,4.2,-5.9,6.8,-5.9,6.8c-2.1,2,-6.2,6.7,-8.2,8.3c-.2,.1,-.8,.6,-1.4,.5c-.7,0,-1.2,-.5,-1.4,-.7c-1.5,-1.6,-3,-3,-4.5,-4.5c-1.9,-2,-2.6,-2.3,-3.3,-2.4c-.8,-.2,-1.5,.1,-2.4,.4c-3.3,1.4,-5.5,2.5,-7.8,3.6c-1.6,.7,-2.9,1.2,-3.8,1.6c-1,.4,-3,1.1,-5.4,1.7c-1.1,.3,-3.8,1,-6.8,1.2c-2,.1,-7.7,.3,-13.6,-3.1c-1.4,-.8,-4.5,-2.6,-7,-6.2c-1.4,-2,-2.1,-3.9,-2.5,-5.1c-1.2,-3.4,-1.7,-7,-1.4,-10.7c.7,-10.2,5.8,-17.7,14.7,-22.7c4.5,-2.5,9.4,-4.2,14.4,-5.5c3.3,-.9,6.6,-1.7,9.9,-2.5c4,-1,5.1,-3.8,5.1,-7.2c-.1,-5,-3.6,-8.3,-9.1,-8c-4.6,.3,-8.8,2,-12.9,4c-4.6,2.2,-9.1,4.5,-13.7,6.8c-.2,.1,-.3,.2,-.4,.2c-2,.9,-3.5,.1,-3.7,-2c-.1,-1.6,0,-3.3,.2,-4.9c.5,-3.9,1.6,-7.7,3.1,-11.4c1,-2.5,2.7,-4.4,5.2,-5.6c5.7,-2.8,11.7,-4.9,18.1,-5.6c2.9,-.4,5.9,-.2,8.8,-.1c4.1,.3,8.1,.9,11.9,2.6c6.3,2.8,11,7.3,13.2,14.1c1.5,4.8,1.9,9.6,1.8,16Z" class="g1_1" />
<path fill-rule="evenodd" d="M489.4,60.5c0,-4.3,0,-12.1,0,-16.3c0,-.7,.1,-2.7,0,-5.3c0,-.7,0,-1.5,0,-3c-.1,-3.3,-.1,-4.9,-.1,-5.1c0,-.3,0,-.8,0,-1.4c0,-.4,0,-.7,0,-1c0,-.4,0,-.5,0,-.8c0,-.4,0,-.5,0,-1.5c0,-.9,0,-1.1,.1,-1.5c.1,-.3,.2,-.5,.2,-.5c.2,-.3,.4,-.5,.8,-.8c.3,-.3,.6,-.5,1.2,-.9c.5,-.4,.6,-.4,.9,-.7c.2,-.1,.4,-.2,.7,-.5c.1,0,.2,-.1,.4,-.3c.2,-.1,1,-.6,2.1,-1.4c0,0,0,-.1,0,-.1c.1,0,0,.1,0,0c1.5,-.9,3.8,-2.5,3.8,-2.5c1.5,-1,2.6,-1.8,4.7,-3.1c2,-1.3,1.6,-1.1,2.1,-1.4c0,0,3.9,-2.7,5.8,-3.5c.1,-.1,.5,-.2,.9,-.2c.2,.1,.4,.1,.6,.2c.3,.2,.5,.5,.6,.6c0,.2,.1,.4,.2,.9c0,.4,0,.7,0,1c0,.5,0,1,0,1.5c0,.5,0,1.2,-.1,2.4c0,.7,0,1.1,0,1.9q0,2.7,0,3.8c0,2.1,0,2.3,0,4.4c0,2.1,0,3.6,0,4.2c-.1,5.5,.1,21.2,.1,36.4c0,12.8,0,19.2,0,20.2c0,1.6,.1,3.2,0,4.8c0,0,-.1,3.1,.5,6.6c.1,.3,.1,.7,.5,1.2c.8,1,2.2,1.1,2.8,1.1c4.1,.2,12.3,.1,14.7,.1c.4,0,.6,0,.8,0c.8,0,1.3,0,1.4,0c.9,0,5.9,0,10.9,0c1,-.1,2.1,-.1,3.5,-.1c.6,0,1.1,0,2.2,0c0,0,.4,0,1.1,0c.7,0,1.1,.1,1.4,.1c.5,0,.8,0,1.2,.1c.6,.1,.9,.3,1,.4c.2,.1,.3,.3,.4,.5c.5,.7,.8,1.3,.9,1.5c.5,1,.5,1.1,.8,1.7c.3,.6,.5,1,.7,1.5c.5,1,1,1.9,1.8,3.7c1.4,2.8,1.4,3,2.1,4.3c.5,1,.8,1.6,1.2,2.3c.1,.2,.7,1.4,1.9,3.8c.1,.1,.2,.5,.2,.9c0,.1,-.1,.4,-.3,.7c-.2,.3,-.6,.4,-1,.5c-.2,0,-.4,0,-.7,.1c-.8,0,-1.1,0,-1.4,0c-2.7,.1,-3.9,.1,-3.9,.1c-1.7,-.1,-3.4,-.1,-5,-.1c-3.6,0,-6.7,0,-7.6,0c-6.1,-.1,-5.4,-.1,-9.6,-.1c-4.7,0,-7,0,-10.1,0c-2.6,.1,-3.3,.1,-6.1,.1c-2.4,0,-4.1,0,-6.6,0c-3.3,0,-4.9,0,-7.8,0c-.9,0,-1.9,0,-2.8,0c-1,0,-2.1,0,-2.5,0c-1.2,0,-3.2,-.1,-6.1,-.2c-.2,0,-.5,0,-.9,0c-.8,-.1,-1.3,-.2,-1.6,-.2c-.9,-.2,-1.2,-.3,-1.4,-.4c-.1,-.1,-.2,-.1,-.4,-.2c-.1,-.1,-.1,-.2,-.2,-.2c-.1,-.1,-.2,-.3,-.3,-.5c-.3,-.4,-.4,-.8,-.4,-.9c-.2,-.8,-.2,-1.6,-.2,-3.1c0,-.3,0,-.6,0,-.6c0,-.2,0,-.4,0,-.5c0,-.6,0,-1.2,0,-2.1c0,0,0,-1.3,0,-3.9c-.2,-14.9,-.1,-26.7,-.1,-26.7c0,-1.6,0,-2.9,0,-3.1c0,-.5,0,-6.6,0,-18.9Z" class="g1_1" />
<path fill-rule="evenodd" d="M394,77.8V60.6c0,-2.2,-.6,-2.7,-2.7,-2.7c-4.2,0,-8.4,0,-12.6,0c-.1,0,-.7,0,-1.4,-.2c-.3,-.1,-.8,-.3,-1,-.7c-.3,-.4,-.3,-.9,-.3,-1.1c.2,-2.7,5.4,-15.4,6,-17.5c0,-.1,.4,-1,1,-2.2c.6,-1.1,1.6,-1.6,2.9,-1.6c1.9,0,3.8,0,5.7,0c.6,0,1.1,-.2,1.5,-.5c.4,-.4,.6,-.9,.7,-1.3c.5,-2.5,.2,-11.8,.2,-12.9c-.1,-.4,-.1,-1.4,.5,-2.2c.6,-.9,1.4,-1.3,1.7,-1.4c6,-2.6,11.8,-5.4,17.7,-7.9c.5,-.2,1.6,-.7,2.3,-.2c.6,.3,.9,1.1,.9,2.2c0,3.3,0,6.6,0,9.8c0,3.7,0,7.4,0,11.1c0,.6,.1,1.2,.2,1.8c.2,1.2,.6,1.5,1.8,1.5c4.6,0,9.2,0,13.8,0c1.2,0,2.1,.3,2.7,.9c.8,.8,.9,1.9,.9,2.6c.2,4,.1,7.2,.1,9.1c.1,4.2,.1,5.7,.1,5.7c.1,1.9,.2,3.3,-.7,4.2c-.7,.6,-1.6,.6,-2.2,.7c-4.3,.1,-10.1,0,-11,0c-2,-.2,-3.4,0,-3.9,.2c-.3,.2,-.5,.4,-.5,.4c-.1,0,-.3,.3,-.5,.5c-.3,.6,-.3,1.3,-.3,1.4c0,10.4,0,20.8,0,31.1c0,1.1,.1,2.2,.3,3.2c.2,2,1.3,3.3,3.2,3.9c.6,.2,1.6,.4,2.9,0c.2,0,1,-.3,2.1,-1.3c1.9,-1.5,2.9,-3.4,3.3,-4.3c.3,-.6,.6,-1.2,1.5,-2.8c.5,-1.1,.9,-1.7,1.5,-2c.2,-.1,.6,-.3,1.2,-.2c.8,.1,1.4,.8,2,1.5c1.5,2,2.3,3.2,2.3,3.2c.7,1.3,1.5,2.5,2.2,3.7c2,3.3,2.9,4.6,3.9,6.8c.4,1,.7,2,.5,3.2c-.1,.8,-.5,1.6,-1.1,2.4c-3.8,4.6,-8.1,8.6,-13.6,11c-3,1.3,-6.2,1.8,-9.4,1.8c-4.6,.2,-9,-.5,-13.1,-2.6c-5.6,-2.9,-9.5,-7.2,-11.5,-13.2c-1.3,-3.8,-1.6,-6.9,-1.8,-11.1c-.2,-4.4,-.3,-10.1,0,-16.8Z" class="g1_1" />
<path fill-rule="evenodd" d="M315.9,102c0,-2.4,0,-4.8,0,-7.3c0,-2.8,1.8,-4.1,4.4,-3.1c.9,.3,1.7,.8,2.6,1.2c5.7,3.1,11.6,5.7,17.7,7.9c1.9,.6,3.9,1.1,5.8,1.4c5,.7,9.1,-4.1,7.8,-8.9c-.5,-2.1,-2.1,-3.4,-3.8,-4.3c-2.7,-1.4,-5.5,-2.6,-8.3,-3.7c-4.2,-1.5,-8.4,-3.1,-12.3,-5.3c-4.4,-2.6,-8.3,-5.7,-11.1,-10c-1.8,-2.6,-3.5,-5.3,-4,-8.5c-.6,-3.2,-.8,-6.4,-.4,-9.7c.7,-5.2,3.3,-9.5,7,-13.1c3.3,-3.1,7.3,-4.9,11.7,-5.8c3.3,-.7,6.7,-1,10.1,-1c5.4,-.1,10.5,1.1,15.5,3c0,0,5,1.8,8.7,5.2c1.1,1,1.6,1.9,1.9,2.7c.4,1.1,.5,1.9,.6,3.1c.1,4.2,.1,6.9,.1,7.7c0,.1,-.1,2,-.5,4.4c-.2,1.7,-.5,2.5,-1,2.8c-.9,.5,-2.3,-.3,-2.9,-.7c0,0,-1.4,-.8,-10.3,-5.9c-3,-1.8,-5.5,-2.7,-7.2,-3.2c-5.2,-1.7,-7.5,-1,-8.4,-.6c-.6,.2,-2,.8,-3.1,2.3c-1.6,2.1,-1.6,4.9,-.9,6.9c1.1,2.9,3.9,4.3,6,5.3c7.2,3.5,14.5,7.1,21.4,11.2c5.8,3.3,9.8,8,11.6,14.5c1,3.9,.8,7.9,.2,11.9c-.9,5.4,-3.3,9.9,-7.5,13.4c-2.9,2.4,-6.3,3.7,-9.9,4.5c-4.7,1,-9.4,1.1,-14,.5c-6.9,-.8,-13.6,-2.7,-20,-5.4c-2,-.9,-4,-2.1,-5.9,-3.2c-.5,-.2,-.9,-.6,-1.1,-1c-.6,-.8,-.5,-1.6,-.5,-2c0,-1.5,0,-4,0,-7.2Z" class="g1_1" />
<path fill-rule="evenodd" d="M78.2,31.5c9.9,.1,18.4,3.5,25.4,10.5c4.9,5,7.8,11,8.7,17.9C113.5,69,111,77.2,105,84.2C99.5,90.7,92.3,94.7,83.9,95.9C73.2,97.6,63.6,95,55.2,88.1c-5.9,-5,-9.7,-11.4,-11,-19c-1.5,-9,.6,-17.2,6.2,-24.3c5.8,-7.4,13.5,-11.6,22.7,-13c.8,-.1,1.7,-.2,2.5,-.3c.9,0,1.7,0,2.6,0Z" class="g0_1" />
<path fill-rule="evenodd" d="M252.8,97c0,-.4,-.1,-1.8,.6,-3.5c.7,-1.6,1.8,-2.9,3.8,-4c4,-2,8.3,-3.2,12.5,-4.7c1.4,-.4,2.8,-.9,4.3,-1.2c1.7,-.4,2.5,.2,2.7,2c.3,2.4,.5,4.9,.8,7.3c.1,.4,.1,.7,-.1,1c-.1,.5,-.4,.8,-.8,1.1c-.8,.6,-7.7,5.2,-17.2,6.8c-.6,.1,-2,.3,-3.4,-.2c-.9,-.4,-1.5,-1,-1.7,-1.2c-1.2,-1.3,-1.4,-2.8,-1.5,-3.4Z" class="g0_1" />
<path fill-rule="evenodd" d="M476.3,72.2c0,-4.3,0,-8.6,-.1,-12.9c0,-.2,0,-.8,-.3,-1.2c-.3,-.3,-.7,-.4,-.7,-.4c-.1,0,-.4,0,-1,0c-1.1,0,-2.4,0,-2.4,0c-.6,0,-1.3,0,-2.8,0c-3,0,-5.3,0,-6.8,.1c-2.3,0,-3.6,0,-4.4,0c-.1,0,-.4,0,-.9,0c-2.8,0,-4.3,0,-4.9,0c-.5,0,-.4,0,-.5,0c-1.2,0,-3.9,-.1,-5.7,0c-.2,0,-.6,0,-.8,.3c-.4,.4,-.3,1.1,-.4,1.4c0,1.4,0,2.8,0,4.3c0,4.2,0,8.5,0,12.8c0,.2,0,.8,.4,1.2c.1,.1,.3,.2,.6,.3c.3,.1,.7,.2,1,.2c.2,0,.4,0,.4,0c.8,0,3.8,0,4.2,0c3.3,0,6.7,-.1,10,-.1c1.6,0,3.2,0,4.8,0c2.1,0,4.9,.1,8.7,0c.3,0,.9,0,1.3,-.5c.3,-.4,.2,-1,.2,-1.2c0,-1.5,.1,-2.9,.1,-4.3Z" class="g1_1" />

</svg>
